<svg preserveAspectRatio="none" width="100%" height="100%" overflow="visible" style="display: block;" viewBox="0 0 13.3333 13.3333" fill="none" xmlns="http://www.w3.org/2000/svg">
<g id="Group">
<path id="Vector" d="M4.66667 0.666667H1.33333C0.965143 0.666667 0.666667 0.965143 0.666667 1.33333V4.66667C0.666667 5.03486 0.965143 5.33333 1.33333 5.33333H4.66667C5.03486 5.33333 5.33333 5.03486 5.33333 4.66667V1.33333C5.33333 0.965143 5.03486 0.666667 4.66667 0.666667Z" stroke="var(--stroke-0, #747476)" stroke-width="1.33333" stroke-linecap="round" stroke-linejoin="round"/>
<path id="Vector_2" d="M4.66667 8H1.33333C0.965143 8 0.666667 8.29848 0.666667 8.66667V12C0.666667 12.3682 0.965143 12.6667 1.33333 12.6667H4.66667C5.03486 12.6667 5.33333 12.3682 5.33333 12V8.66667C5.33333 8.29848 5.03486 8 4.66667 8Z" stroke="var(--stroke-0, #747476)" stroke-width="1.33333" stroke-linecap="round" stroke-linejoin="round"/>
<path id="Vector_3" d="M8 1.33335H12.6667M8 4.66669H12.6667M8 8.66669H12.6667M8 12H12.6667" stroke="var(--stroke-0, #747476)" stroke-width="1.33333" stroke-linecap="round" stroke-linejoin="round"/>
</g>
</svg>
