<svg preserveAspectRatio="none" width="100%" height="100%" overflow="visible" style="display: block;" viewBox="0 0 14.5916 14.578" fill="none" xmlns="http://www.w3.org/2000/svg">
<g id="Group">
<path id="Vector" d="M5.96257 7.95571C6.24887 8.33846 6.61414 8.65516 7.0336 8.88433C7.45306 9.1135 7.9169 9.24978 8.39367 9.28393C8.87043 9.31807 9.34896 9.24928 9.7968 9.08223C10.2446 8.91517 10.6513 8.65375 10.9892 8.31571L12.9892 6.31571C13.5964 5.68703 13.9324 4.84502 13.9248 3.97104C13.9172 3.09705 13.5667 2.261 12.9486 1.64298C12.3306 1.02495 11.4946 0.674387 10.6206 0.666793C9.74658 0.659198 8.90457 0.995179 8.2759 1.60237L7.12923 2.74237" stroke="var(--stroke-0, #747476)" stroke-width="1.33333" stroke-linecap="round" stroke-linejoin="round"/>
<path id="Vector_2" d="M8.62904 6.62232C8.34274 6.23957 7.97747 5.92287 7.55801 5.6937C7.13854 5.46452 6.6747 5.32824 6.19794 5.2941C5.72118 5.25995 5.24265 5.32874 4.79481 5.4958C4.34697 5.66286 3.9403 5.92428 3.60237 6.26232L1.60237 8.26232C0.995179 8.891 0.659198 9.733 0.666793 10.607C0.674387 11.481 1.02495 12.317 1.64298 12.9351C2.261 13.5531 3.09705 13.9036 3.97104 13.9112C4.84502 13.9188 5.68703 13.5828 6.31571 12.9757L7.45571 11.8357" stroke="var(--stroke-0, #747476)" stroke-width="1.33333" stroke-linecap="round" stroke-linejoin="round"/>
</g>
</svg>
