<svg preserveAspectRatio="none" width="100%" height="100%" overflow="visible" style="display: block;" viewBox="0 0 14.5834 14.5834" fill="none" xmlns="http://www.w3.org/2000/svg">
<g id="Group">
<path id="Vector" d="M1.28613 10.1861C1.38415 10.4334 1.40598 10.7044 1.34879 10.9641L0.638795 13.1575C0.615918 13.2687 0.621833 13.3839 0.655978 13.4922C0.690124 13.6005 0.75137 13.6983 0.833906 13.7763C0.916442 13.8543 1.01753 13.9099 1.12759 13.9379C1.23765 13.9659 1.35304 13.9653 1.46279 13.9361L3.73813 13.2708C3.98327 13.2222 4.23715 13.2434 4.47079 13.3321C5.89439 13.9969 7.50704 14.1376 9.02423 13.7293C10.5414 13.321 11.8656 12.3899 12.7633 11.1004C13.6609 9.81085 14.0742 8.24574 13.9303 6.68116C13.7864 5.11659 13.0946 3.65311 11.9768 2.54893C10.8591 1.44475 9.38726 0.770823 7.82105 0.646061C6.25484 0.5213 4.69488 0.953718 3.41642 1.86702C2.13796 2.78033 1.22315 4.11582 0.83339 5.63789C0.443632 7.15995 0.603974 8.77077 1.28613 10.1861Z" stroke="var(--stroke-0, #22C55E)" stroke-width="1.25" stroke-linecap="round" stroke-linejoin="round"/>
<path id="Vector_2" d="M5.29146 7.29146L6.62479 8.6248L9.29146 5.95813" stroke="var(--stroke-0, #22C55E)" stroke-width="1.25" stroke-linecap="round" stroke-linejoin="round"/>
</g>
</svg>
