<svg preserveAspectRatio="none" width="100%" height="100%" overflow="visible" style="display: block;" viewBox="0 0 16 16" fill="none" xmlns="http://www.w3.org/2000/svg">
<g id="lucide:bold">
<path id="Vector" d="M3.9993 7.99996H9.9993C10.7065 7.99996 11.3848 8.28091 11.8849 8.78101C12.385 9.2811 12.666 9.95938 12.666 10.6666C12.666 11.3739 12.385 12.0521 11.8849 12.5522C11.3848 13.0523 10.7065 13.3333 9.9993 13.3333H4.66597C4.48916 13.3333 4.31959 13.2631 4.19456 13.138C4.06954 13.013 3.9993 12.8434 3.9993 12.6666V3.33329C3.9993 3.15648 4.06954 2.98691 4.19456 2.86189C4.31959 2.73686 4.48916 2.66663 4.66597 2.66663H9.33263C10.0399 2.66663 10.7182 2.94758 11.2183 3.44767C11.7183 3.94777 11.9993 4.62605 11.9993 5.33329C11.9993 6.04054 11.7183 6.71881 11.2183 7.21891C10.7182 7.71901 10.0399 7.99996 9.33263 7.99996" stroke="var(--stroke-0, #747476)" stroke-width="1.33333" stroke-linecap="round" stroke-linejoin="round"/>
</g>
</svg>
