<svg width="24" height="24" viewBox="0 0 24 24" fill="none" xmlns="http://www.w3.org/2000/svg">
<path d="M2.35146 17.6122C2.465 17.2622 2.8412 17.0703 3.19131 17.1835C3.54158 17.2969 3.73344 17.6731 3.62002 18.0233L2.67178 20.9491C2.66385 20.9998 2.6671 21.0515 2.68252 21.1005C2.69956 21.1547 2.73011 21.204 2.77139 21.2431C2.81258 21.282 2.86298 21.3101 2.91787 21.3241C2.97134 21.3377 3.02747 21.3365 3.08096 21.3231L5.97549 20.4774C6.32875 20.3741 6.69912 20.5764 6.80264 20.9296C6.90597 21.2829 6.70369 21.6533 6.35049 21.7567L3.44424 22.6073C3.43909 22.6088 3.4338 22.6098 3.42861 22.6112C3.1541 22.6841 2.86504 22.6861 2.58974 22.6161C2.31456 22.5462 2.0617 22.4069 1.85537 22.2118C1.64903 22.0167 1.49529 21.7718 1.41006 21.5009C1.32484 21.2299 1.31053 20.9412 1.36806 20.663L1.38662 20.5927L2.35146 17.6122ZM13.7733 21.164C14.1348 21.094 14.4846 21.3299 14.5546 21.6913C14.6245 22.0528 14.3878 22.4026 14.0263 22.4726C12.6878 22.7315 11.312 22.7316 9.97353 22.4726C9.61205 22.4026 9.37526 22.0528 9.44521 21.6913C9.51517 21.3299 9.86505 21.0941 10.2265 21.164C11.3978 21.3906 12.602 21.3906 13.7733 21.164ZM19.7284 17.2362C19.935 16.9314 20.3494 16.852 20.6542 17.0585C20.9588 17.2651 21.0384 17.6796 20.8319 17.9843C20.0648 19.1164 19.087 20.0905 17.952 20.8534C17.6465 21.0588 17.2327 20.9773 17.0272 20.6718C16.8219 20.3663 16.9026 19.9524 17.2079 19.747C18.2011 19.0794 19.0571 18.2269 19.7284 17.2362ZM2.30849 9.44521C2.66988 9.51515 2.90658 9.86509 2.83681 10.2265C2.61013 11.3978 2.61013 12.602 2.83681 13.7733C2.90677 14.1348 2.66998 14.4846 2.30849 14.5546C1.94709 14.6244 1.59719 14.3877 1.52724 14.0263C1.26828 12.6878 1.26824 11.312 1.52724 9.97353C1.59718 9.61215 1.94711 9.37544 2.30849 9.44521ZM21.6913 9.44521C22.0528 9.37526 22.4026 9.61205 22.4726 9.97353C22.7316 11.312 22.7315 12.6878 22.4726 14.0263C22.4026 14.3878 22.0528 14.6245 21.6913 14.5546C21.3299 14.4846 21.094 14.1348 21.164 13.7733C21.3906 12.602 21.3906 11.3978 21.164 10.2265C21.0941 9.86505 21.3299 9.51517 21.6913 9.44521ZM17.0575 3.34658C17.264 3.04177 17.6785 2.96134 17.9833 3.16787C19.1154 3.93498 20.0895 4.9128 20.8524 6.04775C21.0578 6.35333 20.9764 6.76814 20.6708 6.97353C20.3653 7.17875 19.9514 7.09736 19.746 6.79189C19.0785 5.7988 18.2258 4.94361 17.2353 4.27236C16.9305 4.06587 16.8511 3.65138 17.0575 3.34658ZM6.04873 3.14736C6.35429 2.94197 6.7691 3.02345 6.97451 3.329C7.17991 3.63458 7.09844 4.04939 6.79287 4.25478C5.79996 4.92224 4.9445 5.77414 4.27334 6.76455C4.06691 7.06921 3.65232 7.14941 3.34756 6.94326C3.04288 6.73682 2.96266 6.32225 3.16885 6.01748C3.93599 4.88528 4.9137 3.91032 6.04873 3.14736ZM9.97353 1.52724C11.312 1.26824 12.6878 1.26828 14.0263 1.52724C14.3877 1.59719 14.6244 1.94709 14.5546 2.30849C14.4846 2.66998 14.1348 2.90677 13.7733 2.83681C12.602 2.61013 11.3978 2.61013 10.2265 2.83681C9.86509 2.90658 9.51515 2.66988 9.44521 2.30849C9.37544 1.94711 9.61215 1.59718 9.97353 1.52724Z" fill="white" fill-opacity="0.3"/>
</svg>
