<svg width="16" height="16" viewBox="0 0 16 16" fill="none" xmlns="http://www.w3.org/2000/svg">
<path fill-rule="evenodd" clip-rule="evenodd" d="M7.99916 0.666016C8.52933 0.666016 9.0382 0.877227 9.41322 1.25195C9.78815 1.62688 9.99899 2.13581 9.99916 2.66602V6H11.9992C12.5295 6 13.0382 6.21101 13.4132 6.58594C13.7882 6.96094 13.9991 7.46968 13.9992 8V8.66602C13.9992 9.0196 13.8585 9.35933 13.6085 9.60938C13.5664 9.65145 13.5206 9.68888 13.4738 9.72461L14.6212 13.6582L14.63 13.6895C14.6769 13.8853 14.6791 14.0895 14.6359 14.2861C14.5926 14.4829 14.5047 14.667 14.38 14.8252C14.2551 14.9834 14.0956 15.1113 13.9142 15.1992C13.733 15.2869 13.5344 15.333 13.3331 15.333H2.66615C2.46481 15.333 2.26532 15.287 2.08412 15.1992C1.90308 15.1114 1.74394 14.9832 1.61928 14.8252C1.49465 14.6671 1.40666 14.4828 1.36342 14.2861C1.32024 14.0895 1.32243 13.8852 1.36928 13.6895L1.37709 13.6582L2.52357 9.72461C2.47707 9.68905 2.43162 9.65121 2.38978 9.60938C2.13988 9.35935 1.99916 9.01953 1.99916 8.66602V8C1.99924 7.46983 2.2103 6.96091 2.5851 6.58594C2.96005 6.21103 3.46893 6.00013 3.99916 6H5.99916V2.66602C5.99933 2.13581 6.21017 1.62688 6.5851 1.25195C6.96005 0.877041 7.46893 0.666142 7.99916 0.666016ZM2.66615 14H4.81166L5.35268 11.8379C5.44206 11.481 5.8043 11.2635 6.16127 11.3525C6.5183 11.4418 6.73559 11.8041 6.64662 12.1611L6.18666 14H9.81264L9.35268 12.1611C9.26374 11.8041 9.48106 11.4418 9.83803 11.3525C10.195 11.2635 10.5572 11.481 10.6466 11.8379L11.1867 14H13.3331L12.1662 10H3.83314L2.66615 14ZM7.99916 2C7.82256 2.00013 7.65336 2.07045 7.52846 2.19531C7.40358 2.32019 7.33331 2.48943 7.33314 2.66602V6C7.33306 6.35339 7.19234 6.69243 6.94252 6.94238C6.69247 7.19243 6.35278 7.33301 5.99916 7.33301H3.99916C3.82263 7.33313 3.65335 7.40356 3.52846 7.52832C3.4035 7.65327 3.33322 7.8233 3.33314 8V8.66602H12.6662V8C12.6661 7.8233 12.5958 7.65327 12.4708 7.52832C12.3458 7.40344 12.1759 7.33301 11.9992 7.33301H9.99916C9.64571 7.33288 9.30671 7.19232 9.05678 6.94238C8.80695 6.69243 8.66624 6.3534 8.66615 6V2.66602C8.66598 2.48951 8.59561 2.32017 8.47084 2.19531C8.34584 2.07043 8.17586 2 7.99916 2Z" fill="#747476"/>
</svg>
