<svg width="16" height="16" viewBox="0 0 16 16" fill="none" xmlns="http://www.w3.org/2000/svg">
<path d="M9.83838 11.3528C10.1955 11.2637 10.5577 11.4811 10.647 11.8382L11.313 14.5052C11.4022 14.8622 11.1856 15.2244 10.8286 15.3138C10.4715 15.4031 10.1094 15.1855 10.02 14.8284L9.35303 12.1614C9.26388 11.8043 9.48126 11.4421 9.83838 11.3528ZM12.6665 8.00031C12.6665 7.82349 12.5962 7.65365 12.4712 7.52863C12.3462 7.4036 12.1763 7.33331 11.9995 7.33331H9.99951C9.64601 7.33323 9.3071 7.19266 9.05713 6.94269C8.80716 6.69272 8.66659 6.35381 8.6665 6.00031V2.66632C8.66642 2.4897 8.59604 2.32055 8.47119 2.19562C8.34617 2.07059 8.17632 2.00031 7.99951 2.00031C7.82282 2.00039 7.65376 2.07067 7.52881 2.19562C7.40386 2.32057 7.33358 2.48963 7.3335 2.66632V6.00031C7.33341 6.35373 7.19274 6.69273 6.94287 6.94269C6.69282 7.19274 6.35313 7.33331 5.99951 7.33331H3.99951C3.8229 7.3334 3.65374 7.40378 3.52881 7.52863C3.40378 7.65365 3.3335 7.82349 3.3335 8.00031V8.66632C3.70154 8.6665 3.99951 8.96523 3.99951 9.33331C3.99951 9.70139 3.70154 10.0001 3.3335 10.0003C2.97987 10.0003 2.64018 9.85973 2.39014 9.60968C2.14009 9.35963 1.99951 9.01994 1.99951 8.66632V8.00031C1.99951 7.47003 2.21058 6.96128 2.58545 6.58624C2.96045 6.21125 3.4692 6.00039 3.99951 6.00031H5.99951V2.66632C5.9996 2.136 6.21045 1.62725 6.58545 1.25226C6.96045 0.877262 7.4692 0.666407 7.99951 0.666321C8.52979 0.666321 9.03853 0.877389 9.41357 1.25226C9.78857 1.62725 9.99943 2.136 9.99951 2.66632V6.00031H11.9995C12.5299 6.00031 13.0385 6.21117 13.4136 6.58624C13.7886 6.96132 13.9995 7.46987 13.9995 8.00031V8.66632C13.9995 9.01994 13.8589 9.35963 13.6089 9.60968C13.3589 9.85952 13.02 10.0003 12.6665 10.0003C12.2983 10.0003 11.9995 9.7015 11.9995 9.33331C11.9995 8.96512 12.2983 8.66632 12.6665 8.66632V8.00031Z" fill="#747476"/>
<path d="M12.6667 8.66632L12.7761 8.67609C13.0255 8.71749 13.2338 8.89797 13.3063 9.14679L14.6218 13.6585L14.6305 13.6898C14.6774 13.8856 14.6797 14.0897 14.6364 14.2864C14.5931 14.4832 14.5053 14.6673 14.3805 14.8255C14.2557 14.9837 14.0961 15.1116 13.9147 15.1995C13.7335 15.2873 13.535 15.3333 13.3337 15.3333H2.66668C2.46523 15.3334 2.26595 15.2873 2.08465 15.1995C1.90345 15.1117 1.74456 14.9836 1.61981 14.8255C1.49503 14.6673 1.40723 14.4832 1.36395 14.2864C1.32068 14.0897 1.32293 13.8857 1.36981 13.6898L1.37762 13.6585L2.69305 9.14679C2.77599 8.86231 3.03735 8.66632 3.33367 8.66632H12.6667ZM2.66668 14.0003H4.81219L5.35321 11.8382C5.44253 11.481 5.80463 11.2636 6.1618 11.3528C6.5189 11.4421 6.73625 11.8043 6.64715 12.1614L6.18719 14.0003H13.3337L12.1667 10.0003H3.83367L2.66668 14.0003Z" fill="#747476"/>
</svg>
